<?xml version="1.0" encoding="UTF-8"?>
<svg xmlns="http://www.w3.org/2000/svg" version="1.1" viewBox="0 0 453.5 481.9">
  <defs>
    <style>
      .cls-1 {
        stroke-width: 6.8px;
      }

      .cls-1, .cls-2, .cls-3 {
        fill: none;
        stroke: #003b83;
      }

      .cls-1, .cls-2, .cls-3, .cls-4 {
        stroke-miterlimit: 10;
      }

      .cls-2 {
        stroke-width: 6.8px;
      }

      .cls-5, .cls-4 {
        fill: #003b83;
      }

      .cls-3 {
        stroke-width: 11.3px;
      }

      .cls-6 {
        fill: #fedd6b;
      }

      .cls-4 {
        stroke: #036eb8;
        stroke-width: .4px;
      }

      .cls-7 {
        fill: #fff;
      }

      .cls-8 {
        fill: #fff100;
      }

      .cls-9 {
        display: none;
      }
    </style>
  </defs>
  <!-- Generator: Adobe Illustrator 28.7.10, SVG Export Plug-In . SVG Version: 1.2.0 Build 236)  -->
  <g>
    <g id="_レイヤー_1" data-name="レイヤー_1" class="cls-9">
      <rect class="cls-6" x="28.3" y="38.3" width="425.2" height="425.2"/>
      <rect class="cls-6" x="-481.9" y="38.3" width="425.2" height="425.2"/>
    </g>
    <g id="_レイヤー_2" data-name="レイヤー_2">
      <g>
        <polygon class="cls-7" points="172.4 330.8 36.2 346.7 118.1 236.7 36.2 126.6 172.4 142.6 226.8 16.6 281.1 142.6 417.4 126.6 335.4 236.7 417.4 346.7 281.1 330.8 226.8 456.8 172.4 330.8"/>
        <polygon class="cls-8" points="226.8 413.8 270.5 312.4 380.2 325.3 314.2 236.7 380.2 148.1 270.5 161 226.8 59.6 183 161 73.4 148.1 139.3 236.7 73.4 325.3 183 312.4 226.8 413.8"/>
        <polygon class="cls-1" points="172.4 330.8 36.2 346.7 118.1 236.7 36.2 126.6 172.4 142.6 226.8 16.6 281.1 142.6 417.4 126.6 335.4 236.7 417.4 346.7 281.1 330.8 226.8 456.8 172.4 330.8"/>
        <polygon class="cls-3" points="226.8 413.8 270.5 312.4 380.2 325.3 314.2 236.7 380.2 148.1 270.5 161 226.8 59.6 183 161 73.4 148.1 139.3 236.7 73.4 325.3 183 312.4 226.8 413.8"/>
      </g>
      <g>
        <path class="cls-4" d="M162.8,266.2c2.9,0,4.3.7,4.3,2.1v14.7h-3.8v-14.9h-5.1v14.9h-3.8v-16.8h8.4Z"/>
        <path class="cls-4" d="M172.1,266.2h9.5v1.9h-5.7v5.3h5.8v1.9h-5.8v5.8h5.8v1.9h-9.5v-16.8Z"/>
        <path class="cls-4" d="M186.2,266.2h8.4c2.9,0,4.3.7,4.3,2.1v4.8c0,.6-.5,1-1.4,1.3,1,.3,1.4.8,1.4,1.5v7.1h-3.8v-7.7h-5.1v7.7h-3.8v-16.8ZM190,273.5h5.1v-5.3h-5.1v5.3Z"/>
        <path class="cls-4" d="M207.7,283.1h-3.8v-16.8h3.8v16.8Z"/>
        <path class="cls-4" d="M230,266.2c2.9,0,4.3.7,4.3,2.1v14.7h-3.8v-14.9h-5.1v14.9h-3.8v-14.9h-5.1v14.9h-3.8v-16.8h17.3Z"/>
        <path class="cls-4" d="M248.2,283.1v-7.7h-5.1v7.7h-3.8v-14.7c0-1.4,1.4-2.1,4.3-2.1h4.1c2.9,0,4.3.7,4.3,2.1v14.7h-3.8ZM243.1,268.1v5.3h5.1v-5.3h-5.1Z"/>
        <path class="cls-4" d="M264.2,266.2h9.5v1.9h-5.7v5.3h5.8v1.9h-5.8v5.8h5.8v1.9h-9.5v-16.8Z"/>
        <path class="cls-4" d="M281.4,281.3c.5.2.7.5.7.8s-.2.6-.7.8c-.5.3-1,.4-1.6.4s-1.2-.1-1.6-.3c-.5-.2-.7-.5-.7-.8s.2-.6.7-.8c.5-.2,1-.3,1.6-.3s1.2.1,1.6.3Z"/>
        <path class="cls-4" d="M290.1,277.1v4.1h5.1v-4c0-.4,0-.6-.2-.7-.1-.1-.4-.2-.8-.3l-5.7-1.1c-.9-.2-1.5-.4-1.8-.8s-.5-1-.5-1.8v-4.1c0-1.4,1.4-2.1,4.3-2.1h4.1c2.9,0,4.3.7,4.3,2.1v3.9h-3.8v-4.1h-5.1v4.4c0,.4,0,.7.2.8.1.1.4.2.9.3l5.2,1c1.1.2,1.7.4,2.1.7s.5.8.5,1.5v4.1c0,1.4-1.4,2.1-4.3,2.1h-4.1c-2.9,0-4.3-.7-4.3-2.1v-3.8h3.8Z"/>
        <path class="cls-4" d="M175.1,296.7v2.8h3.2v-2.8c0-.3,0-.4,0-.5,0,0-.2-.1-.5-.2l-3.6-.8c-.6-.1-1-.3-1.1-.5-.2-.2-.3-.7-.3-1.3v-2.9c0-1,.9-1.5,2.7-1.5h2.6c1.8,0,2.7.5,2.7,1.5v2.7h-2.4v-2.9h-3.2v3.1c0,.3,0,.5.1.5,0,0,.3.1.6.2l3.3.7c.7.1,1.1.3,1.3.5s.3.6.3,1.1v2.8c0,1-.9,1.5-2.7,1.5h-2.6c-1.8,0-2.7-.5-2.7-1.5v-2.7h2.4Z"/>
        <path class="cls-4" d="M186.5,300.9c-1.8,0-2.7-.5-2.7-1.5v-8.8c0-1,.9-1.5,2.7-1.5h2.6c1.8,0,2.7.5,2.7,1.5v8.8c0,1-.9,1.5-2.7,1.5h-2.6ZM186.2,299.6h3.2v-9.1h-3.2v9.1Z"/>
        <path class="cls-4" d="M203,299.4c0,1-.9,1.5-2.7,1.5h-2.6c-1.8,0-2.7-.5-2.7-1.5v-8.8c0-1,.9-1.5,2.7-1.5h2.6c1.8,0,2.7.5,2.7,1.5v3h-2.4v-3.1h-3.2v9.1h3.2v-3.2h2.4v3Z"/>
        <path class="cls-4" d="M214.1,299.4c0,1-.9,1.5-2.7,1.5h-2.6c-1.8,0-2.7-.5-2.7-1.5v-8.8c0-1,.9-1.5,2.7-1.5h2.6c1.8,0,2.7.5,2.7,1.5v3h-2.4v-3.1h-3.2v9.1h3.2v-3.2h2.4v3Z"/>
        <path class="cls-4" d="M217.3,289.1h6v1.3h-3.6v3.7h3.6v1.3h-3.6v4.1h3.6v1.3h-6v-11.8Z"/>
        <path class="cls-4" d="M226.2,289.1h5.3c1.8,0,2.7.5,2.7,1.5v3.3c0,.4-.3.7-.9.9.6.2.9.6.9,1v5h-2.4v-5.4h-3.2v5.4h-2.4v-11.8ZM228.6,294.2h3.2v-3.7h-3.2v3.7Z"/>
        <path class="cls-4" d="M249.8,299.4c0,1-.9,1.5-2.7,1.5h-2.6c-1.8,0-2.7-.5-2.7-1.5v-8.8c0-1,.9-1.5,2.7-1.5h2.6c1.8,0,2.7.5,2.7,1.5v3h-2.4v-3.1h-3.2v9.1h3.2v-3.2h2.4v3Z"/>
        <path class="cls-4" d="M255.4,289.1v10.5h4v1.3h-6.4v-11.8h2.4Z"/>
        <path class="cls-4" d="M264.3,300.9c-1.8,0-2.7-.5-2.7-1.5v-10.3h2.4v10.5h3.2v-10.5h2.4v11.8h-5.3Z"/>
        <path class="cls-4" d="M272.7,289.1h5.3c1.8,0,2.7.5,2.7,1.5v3.3c0,.4-.3.7-.9.9.6.2.9.6.9,1v3.5c0,1-.9,1.5-2.7,1.5h-5.3v-11.8ZM275.1,294.2h3.2v-3.7h-3.2v3.7ZM275.1,299.6h3.2v-4.1h-3.2v4.1Z"/>
        <path class="cls-4" d="M214.4,318.6h-2.4v-11.8h2.4v11.8Z"/>
        <path class="cls-4" d="M221.8,313.2h-1.5c-1.8,0-2.7-.5-2.7-1.5v-3.4c0-1,.9-1.5,2.7-1.5h2.6c1.8,0,2.7.5,2.7,1.5v8.8c0,1-.9,1.5-2.7,1.5h-2.6c-1.8,0-2.7-.5-2.7-1.5v-2.5h2.4v2.7h3.2v-4.2c-.3,0-.7.1-1.4.1ZM223.2,311.9v-3.7h-3.2v3.7h3.2Z"/>
        <path class="cls-4" d="M234.1,306.8v1l-3.9,10.8h-2.3l3.8-10.5h-3.8v-1.3h6.3Z"/>
        <path class="cls-4" d="M242,306.8v1l-3.9,10.8h-2.3l3.8-10.5h-3.8v-1.3h6.3Z"/>
      </g>
      <g>
        <path class="cls-5" d="M299.2,219.1v-24.6h0c-19.5,0-46.1,0-46.1,30.8s26.7,30.8,46.1,30.8v-11.3c-26.2,0-34.9-2.8-34.9-19.5s6.1-18.2,23.6-19.2v13.1h11.3Z"/>
        <polygon class="cls-5" points="195.1 235.9 165.9 194.5 154.6 194.5 154.6 198.6 154.6 241.6 165.9 241.6 165.9 214.6 195.1 256 206.4 256 206.4 251.9 206.4 194.5 195.1 194.5 195.1 235.9"/>
        <path class="cls-5" d="M229.6,205.7h1c3.8,0,6.9,3.1,6.9,6.9h11.3c0-10-8.2-18.2-18.2-18.2h-1c-10,0-18.2,8.2-18.2,18.2s8.2,18.2,18.2,18.2h1c3.8,0,6.9,3.1,6.9,6.9s-3.1,6.9-6.9,6.9h-1v11.3h1c10,0,18.2-8.2,18.2-18.2s-8.2-18.2-18.2-18.2h-1c-3.8,0-6.9-3.1-6.9-6.9s3.1-6.9,6.9-6.9Z"/>
      </g>
      <polyline class="cls-2" points="154.4 181.6 226.7 181.6 299 181.6"/>
      <polygon class="cls-5" points="226.8 127.4 231.1 136.3 240.9 137.7 233.8 144.6 235.5 154.4 226.8 149.7 218 154.4 219.7 144.6 212.6 137.7 222.4 136.3 226.8 127.4"/>
      <polygon class="cls-5" points="246.6 151.4 249.7 157.7 256.5 158.6 251.5 163.5 252.7 170.3 246.6 167 240.5 170.3 241.7 163.5 236.7 158.6 243.6 157.7 246.6 151.4"/>
      <polygon class="cls-5" points="206.9 151.4 210 157.7 216.8 158.6 211.9 163.5 213.1 170.3 206.9 167 200.8 170.3 202 163.5 197 158.6 203.9 157.7 206.9 151.4"/>
    </g>
  </g>
</svg>